<?xml version="1.0" standalone="no"?>
<!DOCTYPE svg PUBLIC "-//W3C//DTD SVG 20010904//EN"
 "http://www.w3.org/TR/2001/REC-SVG-20010904/DTD/svg10.dtd">
<svg version="1.0" xmlns="http://www.w3.org/2000/svg"
 width="466.000000pt" height="466.000000pt" viewBox="0 0 466.000000 466.000000"
 preserveAspectRatio="xMidYMid meet">
<metadata>
Created by potrace 1.14, written by Peter Selinger 2001-2017
</metadata>
<g transform="translate(0.000000,466.000000) scale(0.100000,-0.100000)"
fill="#000000" stroke="none">
<path d="M2242 4305 c-18 -8 -34 -13 -37 -12 -2 1 -11 -7 -19 -18 -9 -11 -16
-16 -16 -12 0 13 -30 -20 -30 -33 0 -6 -4 -8 -10 -5 -5 3 -10 -1 -10 -10 0 -9
-4 -14 -8 -11 -5 3 -19 -13 -33 -34 -13 -22 -27 -40 -30 -40 -4 0 -13 -20 -20
-45 -7 -25 -16 -45 -20 -45 -4 0 -6 -8 -4 -17 1 -10 -2 -28 -6 -40 -5 -13 -5
-23 0 -23 5 0 8 -6 7 -12 -3 -22 -17 -39 -27 -33 -5 4 -9 2 -9 -2 0 -5 -10 -9
-22 -10 -24 -1 -42 -5 -101 -21 -20 -6 -38 -7 -41 -4 -3 3 -6 1 -6 -4 0 -5 -9
-11 -20 -12 -11 -1 -29 -3 -40 -4 -11 -1 -20 -6 -20 -10 0 -4 -12 -5 -27 -4
-16 2 -32 4 -37 5 -6 0 -5 6 2 13 7 7 12 20 12 30 0 10 5 18 11 18 8 0 9 4 0
13 -6 8 -8 16 -5 20 3 3 7 27 9 54 4 61 10 97 19 111 3 5 0 12 -6 15 -15 5
-77 -23 -79 -35 -3 -19 -5 -23 -10 -33 -4 -5 -5 -18 -4 -27 2 -10 -1 -18 -6
-18 -6 0 -7 -6 -2 -12 9 -16 12 -58 3 -58 -3 0 -5 -13 -4 -30 2 -36 -35 -96
-59 -94 -9 1 -17 -2 -17 -7 0 -5 -6 -6 -12 -4 -22 8 -60 -30 -60 -59 -1 -35
16 -52 96 -101 61 -37 66 -43 66 -75 -1 -36 -19 -70 -39 -70 -6 0 -11 -6 -11
-12 0 -10 -2 -10 -9 0 -4 8 -11 13 -15 12 -15 -2 -64 34 -59 44 3 6 3 8 -2 4
-8 -8 -64 19 -77 37 -4 6 -8 7 -8 2 0 -4 -11 0 -25 9 -14 9 -25 12 -25 7 0 -6
-12 -8 -27 -5 -16 2 -25 1 -21 -3 4 -4 0 -14 -10 -22 -9 -8 -12 -12 -5 -8 9 4
8 -1 -1 -20 -9 -17 -11 -37 -6 -60 4 -19 5 -36 2 -39 -3 -4 0 -6 7 -6 7 0 10
-4 7 -9 -5 -8 58 -76 97 -103 9 -7 19 -23 21 -34 10 -50 18 -100 19 -111 0 -7
4 -13 7 -13 13 0 32 -58 24 -71 -4 -8 -3 -10 4 -5 24 15 11 -12 -13 -28 -14
-9 -25 -22 -25 -28 0 -6 -7 -20 -16 -29 -9 -10 -17 -36 -18 -58 0 -22 -4 -37
-7 -35 -4 2 2 -22 13 -54 12 -31 25 -58 29 -60 5 -2 9 -10 9 -17 0 -7 7 -16
16 -19 9 -4 14 -9 10 -13 -6 -7 54 -48 67 -45 4 1 7 -3 7 -9 0 -6 6 -9 12 -7
7 3 23 -1 36 -8 14 -7 31 -10 38 -7 8 3 14 -1 14 -10 0 -8 7 -20 15 -27 9 -7
14 -18 12 -24 -4 -13 52 -66 70 -66 7 0 13 -5 13 -11 0 -5 4 -8 9 -4 5 3 12 1
16 -5 4 -6 10 -8 14 -6 4 3 7 -21 8 -52 1 -77 6 -112 15 -112 4 0 8 -11 8 -25
0 -14 5 -25 10 -25 6 0 10 -8 10 -18 0 -10 9 -24 19 -32 11 -7 17 -18 14 -23
-3 -6 -1 -7 5 -3 6 4 20 -2 31 -13 17 -17 51 -36 106 -57 37 -14 147 -20 165
-9 5 3 10 1 10 -5 0 -7 6 -6 15 3 8 9 24 13 35 10 11 -3 20 -1 20 5 0 6 9 9
20 7 11 -2 22 0 25 6 4 5 15 9 26 9 11 0 22 7 25 15 4 8 10 12 15 10 5 -3 22
1 39 10 21 11 36 13 48 6 9 -5 16 -12 14 -15 -4 -8 8 -65 18 -86 21 -41 33
-76 31 -87 -1 -7 5 -13 14 -13 9 0 14 -4 10 -10 -3 -5 -1 -17 4 -27 8 -15 18
-38 26 -63 1 -3 7 -18 14 -35 7 -16 10 -37 8 -47 -3 -10 -2 -18 2 -18 4 0 8
-6 9 -12 0 -7 3 -25 5 -40 2 -16 0 -29 -4 -29 -19 -3 -24 -5 -34 -11 -6 -3
-27 -9 -47 -13 -21 -4 -42 -13 -48 -20 -6 -8 -18 -11 -25 -9 -8 3 -20 2 -27
-2 -13 -9 -18 -10 -39 -13 -5 0 -7 -6 -3 -13 5 -7 3 -8 -5 -3 -12 7 -36 -15
-144 -134 -20 -22 -35 -41 -32 -41 3 0 -6 -12 -20 -27 -14 -15 -25 -31 -25
-36 0 -4 -5 -5 -12 -1 -6 4 -8 3 -5 -3 3 -5 -9 -27 -28 -48 -19 -20 -32 -41
-29 -46 3 -5 -2 -9 -10 -9 -9 0 -16 -4 -16 -9 0 -4 -11 -21 -25 -37 -40 -46
-45 -53 -45 -63 0 -5 -12 -19 -26 -30 -15 -12 -24 -21 -20 -21 7 0 -5 -17 -41
-56 -13 -14 -23 -29 -23 -34 0 -6 -5 -10 -12 -10 -6 0 -9 -3 -6 -6 3 -3 -5
-16 -19 -30 -13 -13 -22 -28 -19 -33 3 -5 -1 -12 -10 -15 -8 -3 -13 -10 -9
-15 3 -5 1 -12 -4 -15 -5 -3 -7 -34 -4 -68 2 -35 5 -73 5 -85 1 -13 5 -23 8
-23 4 0 13 -23 20 -50 7 -28 18 -50 22 -50 5 0 6 -5 3 -10 -3 -6 -2 -10 4 -10
6 0 8 -7 4 -16 -3 -9 -1 -19 5 -23 6 -4 13 -16 15 -26 1 -11 6 -25 10 -32 4
-6 9 -24 11 -40 8 -54 17 -87 27 -99 5 -6 6 -14 2 -17 -3 -4 1 -7 10 -7 10 0
17 -7 17 -16 0 -10 6 -14 14 -11 8 3 16 2 18 -3 2 -5 15 -11 30 -14 15 -2 33
-8 39 -12 8 -5 9 -3 4 7 -7 11 -5 11 10 -1 19 -15 22 -15 42 1 7 7 14 6 18 -1
5 -8 10 -8 20 0 10 8 15 8 20 0 5 -8 11 -7 23 2 12 10 14 10 8 1 -8 -14 6 -18
18 -6 11 11 50 9 58 -2 5 -6 8 -5 8 3 0 10 5 10 21 1 12 -6 19 -7 16 -2 -4 6
9 10 28 11 20 1 45 6 56 13 17 9 20 8 14 -2 -6 -9 -3 -10 11 -4 18 7 59 13
117 16 15 1 30 6 33 10 2 4 13 6 24 4 11 -2 20 0 20 4 0 5 11 7 25 6 14 -2 25
0 25 4 0 6 17 10 58 13 6 1 12 4 12 8 0 3 14 7 31 8 17 1 39 7 49 12 9 5 20 6
24 3 3 -3 6 -1 6 5 0 6 9 9 20 7 11 -2 22 0 25 5 3 4 23 11 45 15 22 4 40 10
40 14 0 4 9 8 20 9 11 1 29 3 40 4 11 1 20 5 20 9 0 7 59 23 78 20 6 -1 12 3
12 10 0 6 7 9 15 6 8 -4 17 -2 20 3 3 5 12 7 20 3 8 -3 15 -1 15 5 0 9 38 20
83 25 9 1 17 4 17 7 0 4 6 7 13 8 6 1 32 6 57 12 25 6 57 14 72 17 15 3 26 9
23 13 -2 4 7 5 20 2 15 -2 25 0 25 7 0 7 4 10 9 7 10 -7 67 44 64 56 -2 4 1 8
5 8 5 0 8 19 7 43 -2 44 -24 117 -36 117 -4 0 -10 16 -13 35 -4 19 -11 35 -16
35 -5 0 -6 7 -3 17 5 12 3 14 -7 8 -8 -5 -11 -3 -8 6 3 8 -1 28 -10 44 -8 17
-19 38 -23 47 -5 10 -9 25 -9 33 0 8 -5 15 -11 15 -5 0 -8 4 -4 9 3 5 1 12 -5
16 -6 4 -8 11 -5 16 4 5 2 9 -3 9 -5 0 -15 18 -22 40 -7 22 -17 40 -22 40 -4
0 -8 9 -8 20 0 11 -4 20 -10 20 -5 0 -10 5 -10 10 0 6 -11 28 -25 50 -14 22
-22 40 -19 40 4 0 -3 8 -14 19 -12 10 -22 22 -22 26 0 4 -13 20 -29 36 -16 15
-28 29 -28 31 1 2 0 2 -2 0 -3 -1 -15 8 -28 20 -13 12 -23 18 -23 14 0 -4 -7
0 -16 8 -8 9 -20 14 -25 11 -5 -4 -9 -1 -9 5 0 6 -4 9 -9 6 -4 -3 -17 1 -27 9
-10 8 -27 15 -37 15 -10 0 -15 5 -12 10 3 6 -4 10 -18 10 -14 0 -30 7 -37 15
-7 9 -15 13 -17 11 -3 -3 -20 4 -39 15 -19 10 -41 19 -49 19 -8 0 -15 3 -15 8
0 4 -14 13 -32 21 -17 8 -40 21 -51 30 -10 9 -28 24 -39 33 -13 11 -22 33 -24
57 -1 22 -7 49 -13 59 -6 11 -7 22 -4 26 3 3 0 6 -7 6 -7 0 -11 3 -7 6 3 4 -5
28 -19 55 -13 27 -21 49 -17 49 5 0 3 4 -3 8 -11 7 -32 49 -76 152 -11 25 -20
57 -20 72 -1 15 -5 25 -9 22 -5 -3 -6 2 -3 10 5 12 28 23 71 32 7 1 16 -2 19
-7 4 -6 11 -6 19 1 9 7 15 8 19 1 4 -6 14 -7 23 -4 15 6 52 -30 53 -52 0 -5
-5 -3 -10 5 -6 9 -10 10 -10 3 0 -6 4 -14 9 -17 5 -3 12 -22 15 -41 4 -19 11
-35 17 -35 6 0 8 -4 5 -8 -3 -5 5 -18 17 -28 29 -25 104 -27 131 -2 10 9 23
15 28 12 4 -3 8 -1 8 5 0 5 9 12 19 16 10 3 35 21 55 40 20 18 36 31 36 27 0
-4 13 8 29 26 17 17 34 32 38 32 4 1 19 14 33 30 13 17 29 30 36 30 6 0 17 6
23 14 8 9 22 11 51 6 22 -4 40 -5 40 -1 0 3 7 -4 15 -16 9 -12 14 -26 13 -30
-1 -4 5 -28 12 -53 7 -25 13 -49 11 -54 -1 -5 6 -17 15 -27 10 -11 14 -22 11
-26 -4 -3 5 -21 19 -40 14 -18 22 -33 19 -33 -4 0 7 -13 23 -30 17 -17 35 -30
41 -30 6 0 11 -4 11 -8 0 -5 20 -9 45 -11 28 -1 45 2 45 9 0 6 5 8 11 5 6 -4
17 1 24 11 8 11 15 15 15 11 0 -5 12 6 27 25 15 18 33 37 41 41 7 5 10 12 7
18 -4 5 1 12 9 15 9 3 16 12 16 18 0 7 9 22 21 34 11 12 17 27 14 32 -3 6 -2
10 3 10 8 0 15 14 21 45 1 3 10 21 21 41 11 19 18 39 15 45 -4 5 -1 9 5 9 6 0
9 4 5 9 -3 5 -1 12 5 16 6 4 8 11 5 16 -4 5 -2 9 3 9 5 0 9 6 10 13 1 12 9 47
12 57 1 3 3 10 5 15 1 6 3 12 4 15 3 7 10 39 15 70 2 14 6 32 9 40 14 33 13
91 -1 120 -14 29 -18 31 -56 27 -50 -6 -67 -10 -83 -20 -7 -5 -13 -6 -13 -2 0
7 -103 -46 -111 -58 -3 -5 -10 -9 -15 -8 -20 1 -54 -12 -54 -20 0 -5 -6 -9
-14 -9 -7 0 -19 -6 -25 -13 -14 -18 -56 -15 -56 4 -1 8 -6 13 -12 12 -7 -2
-10 6 -8 17 2 12 0 18 -5 15 -5 -3 -11 4 -15 15 -3 11 -11 20 -16 20 -5 0 -9
7 -9 15 0 8 -3 15 -7 15 -5 0 -13 11 -20 25 -6 14 -7 23 -2 19 5 -3 9 12 9 33
0 22 5 44 12 51 9 9 9 12 0 12 -9 0 -10 5 -3 19 6 10 7 21 3 25 -3 4 0 11 8
16 12 8 13 10 1 10 -12 0 -11 3 1 18 10 10 14 31 12 55 -2 20 0 37 5 37 4 0 7
16 6 35 -1 20 3 35 9 35 6 0 5 4 -2 9 -15 9 -15 13 -1 49 6 14 5 22 -2 22 -8
0 -7 5 1 15 7 8 9 15 4 15 -5 0 -10 16 -11 37 -1 20 -8 40 -15 44 -7 5 -9 9
-4 9 9 0 -32 39 -43 41 -36 5 -91 3 -91 -3 0 -5 -4 -6 -10 -3 -5 3 -10 1 -10
-5 0 -6 -4 -8 -10 -5 -5 3 -10 2 -10 -3 0 -5 -7 -9 -15 -9 -8 0 -13 2 -11 4 2
2 -11 19 -30 37 -19 18 -34 38 -34 45 0 7 -4 9 -10 6 -5 -3 -10 1 -10 9 0 9
-9 16 -20 16 -13 0 -18 5 -13 16 4 10 -2 17 -16 21 -25 6 -25 45 1 65 21 18
70 107 63 118 -3 5 -1 11 4 14 5 4 8 14 6 24 -1 9 2 25 7 36 8 14 7 17 -3 11
-8 -6 -10 -4 -3 6 5 8 10 31 11 52 2 30 -2 40 -23 53 -28 19 -111 27 -120 12
-4 -6 -10 -5 -14 3 -7 10 -12 10 -23 1 -7 -7 -17 -9 -20 -5 -4 3 -7 1 -7 -5 0
-6 -6 -9 -14 -6 -8 3 -17 0 -21 -5 -3 -6 -11 -9 -16 -6 -5 4 -9 1 -9 -4 0 -6
-3 -10 -7 -9 -15 3 -63 -14 -63 -23 0 -5 -7 -9 -15 -9 -8 0 -15 -5 -15 -11 0
-6 -7 -8 -16 -5 -8 3 -12 2 -9 -4 3 -5 -4 -12 -17 -15 -26 -6 -70 -3 -62 4 5
5 -57 35 -68 33 -5 -1 -8 2 -8 8 0 5 -9 10 -20 10 -11 0 -20 5 -20 11 0 5 -3
8 -7 6 -5 -3 -19 0 -33 6 -28 11 -47 16 -72 19 -10 1 -18 6 -18 11 0 4 -4 6
-9 2 -10 -6 -24 11 -27 32 -1 7 2 15 7 19 5 3 5 13 -1 25 -6 10 -7 19 -3 19 5
0 7 24 5 53 -4 76 -4 77 -14 77 -5 0 -6 5 -3 10 3 6 1 10 -5 10 -6 0 -9 4 -5
10 3 5 -10 25 -28 44 -19 19 -32 38 -29 41 3 3 -2 5 -11 5 -9 0 -17 5 -17 12
0 6 -3 8 -7 5 -3 -4 -11 0 -17 7 -18 22 -48 26 -84 11z"/>
<path d="M3537 4211 c-10 -4 -19 -11 -19 -16 0 -6 -4 -9 -8 -8 -4 1 -11 -4
-14 -13 -4 -10 -2 -13 7 -8 8 6 8 3 -1 -9 -8 -9 -10 -22 -6 -29 5 -7 9 -20 11
-28 2 -14 18 -25 27 -18 3 2 11 -5 18 -15 12 -16 15 -16 54 3 23 12 44 30 47
42 8 28 -2 75 -18 88 -16 13 -74 19 -98 11z m56 -15 c-3 -4 5 -5 18 -1 24 7
24 7 4 -10 -11 -9 -14 -14 -7 -10 18 9 26 -23 12 -50 -10 -18 -19 -22 -43 -19
-32 4 -47 18 -47 47 0 28 20 52 45 52 13 0 21 -4 18 -9z"/>
<path d="M828 3952 c-10 -2 -18 -8 -18 -13 0 -5 -9 -9 -20 -9 -11 0 -20 -7
-20 -16 0 -8 -3 -13 -7 -11 -5 3 -14 -1 -21 -9 -7 -8 -9 -14 -5 -14 4 0 3 -4
-3 -8 -18 -12 -27 -52 -12 -53 7 0 4 -4 -7 -9 -11 -5 -15 -9 -9 -9 6 -1 10
-12 9 -26 -2 -14 1 -25 6 -25 5 0 8 -3 8 -7 -3 -19 3 -31 31 -61 17 -18 30
-31 30 -27 0 3 10 -1 23 -8 20 -12 55 -14 112 -5 24 4 108 86 100 98 -3 5 -1
11 4 14 19 12 -15 156 -37 156 -5 0 -18 9 -30 20 -14 13 -22 16 -22 8 0 -9 -3
-9 -10 2 -9 14 -64 21 -102 12z m84 -41 c15 -13 25 -28 22 -33 -3 -4 -1 -8 4
-8 15 0 1 -43 -19 -61 -10 -9 -17 -18 -14 -21 3 -2 -14 -3 -36 -1 -39 3 -75
24 -62 37 4 3 1 6 -5 6 -21 0 -13 56 11 82 29 31 63 30 99 -1z"/>
<path d="M3845 3733 c-16 -9 -24 -20 -21 -29 3 -8 1 -14 -4 -14 -6 0 -10 4
-10 10 0 17 -27 -1 -39 -26 -6 -14 -16 -22 -21 -19 -6 4 -10 3 -9 -2 3 -16
-14 -73 -21 -68 -3 2 -6 -29 -6 -70 0 -41 4 -75 9 -75 4 0 6 -4 2 -9 -3 -5 -1
-12 5 -16 6 -4 8 -11 5 -16 -4 -5 1 -9 10 -9 9 0 13 -4 10 -10 -3 -5 -1 -10 5
-10 6 0 9 -4 6 -9 -3 -5 4 -11 15 -14 12 -3 18 -10 14 -16 -3 -7 0 -8 9 -5 9
3 16 2 16 -4 0 -9 10 -13 60 -29 29 -9 120 -8 120 1 0 5 3 6 7 3 3 -4 12 -2
20 4 7 6 13 8 13 5 0 -4 10 2 22 14 12 11 29 20 37 20 14 0 14 1 1 10 -13 8
-12 10 3 10 9 0 17 6 17 14 0 8 7 16 15 20 8 3 15 12 15 21 0 8 4 15 8 15 4 0
9 9 10 20 3 41 3 105 -1 120 -11 39 -30 80 -37 80 -5 0 -12 9 -15 20 -3 11
-12 20 -20 20 -7 0 -16 7 -19 16 -3 8 -10 12 -16 9 -5 -3 -10 -2 -10 3 0 28
-157 39 -205 15z m113 -7 c12 0 22 -3 22 -8 0 -5 4 -7 9 -3 5 3 16 -2 24 -10
9 -8 20 -15 26 -15 6 0 11 -7 11 -15 0 -8 5 -15 10 -15 6 0 10 -7 10 -16 0 -8
4 -13 9 -10 5 4 8 -5 6 -19 -1 -14 1 -25 4 -25 4 0 6 -15 4 -32 -2 -18 -4 -39
-5 -45 -1 -7 -4 -13 -7 -13 -3 0 -12 -13 -19 -30 -8 -16 -20 -30 -28 -30 -9 0
-12 -5 -8 -12 4 -6 3 -8 -4 -4 -6 3 -17 0 -25 -8 -11 -11 -17 -12 -27 -3 -9 8
-11 8 -7 1 9 -15 -20 -27 -29 -12 -4 7 -9 6 -15 -3 -5 -8 -9 -9 -9 -4 0 6 -12
12 -27 13 -16 1 -29 7 -31 12 -2 6 -9 10 -16 10 -6 0 -18 10 -26 21 -8 12 -21
28 -28 35 -7 8 -10 14 -6 14 3 0 0 8 -7 17 -12 15 -12 16 1 8 12 -7 13 -6 5 6
-12 16 -12 27 -1 87 4 23 12 40 17 36 5 -3 9 1 9 9 0 8 9 17 21 20 12 3 18 10
15 15 -3 5 2 16 11 23 12 10 14 10 9 2 -4 -7 -3 -13 3 -13 5 0 12 4 16 10 3 5
12 7 20 3 8 -3 15 0 15 7 0 8 4 9 13 3 6 -5 22 -8 35 -7z"/>
<path d="M973 3287 c-18 -12 -33 -28 -33 -34 0 -7 -4 -13 -8 -13 -4 0 -8 -16
-8 -35 0 -19 4 -35 9 -35 5 0 7 -7 3 -15 -3 -8 -1 -15 4 -15 5 0 15 -7 23 -15
8 -8 26 -16 41 -19 14 -2 30 -7 35 -11 5 -3 14 3 20 12 6 10 11 14 11 10 0
-17 41 32 43 52 1 11 4 21 8 21 10 0 -5 50 -22 78 -8 12 -22 22 -31 22 -10 0
-18 4 -18 8 0 5 -7 9 -15 9 -8 0 -15 -4 -15 -9 0 -4 -5 -8 -11 -8 -5 0 -7 5
-4 10 8 14 5 12 -32 -13z m81 -30 c20 -20 21 -56 1 -63 -8 -4 -13 -9 -10 -13
2 -4 -9 -7 -25 -7 -23 0 -32 7 -49 38 -11 21 -16 36 -10 32 6 -3 13 3 15 13 7
24 54 24 78 0z"/>
<path d="M4211 2944 c-1 -6 6 -17 14 -24 21 -18 7 -88 -16 -75 -5 4 -9 0 -9
-7 0 -9 -3 -9 -10 2 -9 13 -10 13 -10 0 -1 -10 -7 -8 -21 9 -11 14 -18 33 -16
43 3 11 0 18 -9 18 -13 0 -18 -12 -15 -32 0 -5 -3 -8 -9 -8 -6 0 -6 -9 -1 -22
4 -13 7 -31 5 -41 -1 -11 0 -16 3 -13 3 3 12 -2 20 -12 9 -10 12 -11 7 -2 -6
12 -3 11 12 -2 33 -29 106 -8 120 34 12 36 12 58 0 58 -6 0 -6 4 2 8 9 7 6 15
-13 36 -14 15 -29 25 -34 22 -5 -4 -12 0 -14 6 -4 8 -6 9 -6 2z"/>
<path d="M580 2583 c8 -12 17 -20 22 -17 11 7 21 -42 14 -70 -3 -13 -14 -26
-23 -30 -10 -3 -23 -8 -29 -11 -12 -6 -54 27 -54 44 0 6 -5 11 -11 11 -8 0 -8
5 1 15 7 8 10 24 7 34 -3 14 -1 18 9 14 8 -3 14 -1 14 5 0 17 -32 7 -50 -16
-10 -12 -19 -19 -21 -17 -3 2 -5 -18 -6 -46 0 -27 4 -49 9 -49 5 0 6 -4 3 -10
-3 -5 -2 -10 4 -10 5 0 12 -8 15 -18 4 -10 13 -19 21 -20 8 -1 22 -3 30 -4 8
-1 15 -4 15 -8 0 -4 7 -7 15 -7 8 0 15 4 15 9 0 4 8 8 18 8 44 0 85 95 58 138
-4 6 -4 12 0 12 4 0 -6 11 -22 25 -15 13 -30 22 -33 20 -2 -3 -11 1 -19 8 -13
11 -14 9 -2 -10z"/>
<path d="M545 2580 c3 -5 8 -10 11 -10 2 0 4 5 4 10 0 6 -5 10 -11 10 -5 0 -7
-4 -4 -10z"/>
<path d="M1197 2403 c-12 -11 -8 -31 6 -30 33 1 45 -5 55 -29 7 -14 8 -23 4
-20 -5 3 -7 -5 -5 -17 4 -28 -10 -50 -34 -52 -10 0 -24 -4 -31 -9 -7 -4 -15
-1 -18 8 -3 9 -10 13 -15 10 -5 -3 -9 2 -9 10 0 9 -4 16 -9 16 -5 0 -8 11 -8
25 0 14 5 25 11 25 6 0 5 4 -3 9 -11 7 -9 10 7 15 11 4 23 14 27 23 5 15 4 15
-13 0 -10 -9 -23 -17 -29 -17 -12 0 -38 -58 -33 -75 3 -12 8 -38 9 -45 3 -15
48 -56 59 -53 6 3 12 0 12 -5 0 -13 78 4 93 21 26 26 42 51 30 43 -18 -10 -16
-1 3 18 8 9 11 16 6 16 -6 0 -8 9 -5 19 3 11 -4 28 -16 40 -12 12 -21 26 -21
31 0 8 -21 13 -46 9 -4 0 -10 4 -14 10 -3 6 -9 8 -13 4z"/>
<path d="M3105 2034 c-7 -7 -16 -10 -19 -6 -4 3 -4 -1 0 -11 3 -10 1 -17 -5
-17 -6 0 -11 -12 -11 -26 0 -17 -4 -23 -12 -19 -7 4 -4 -1 6 -9 11 -9 14 -16
8 -16 -8 0 -4 -12 10 -30 12 -16 29 -30 38 -30 9 0 21 -5 28 -12 8 -8 12 -9
12 -1 0 6 9 9 20 6 11 -3 20 0 20 6 0 6 3 10 8 10 19 -3 33 2 27 11 -3 6 0 12
7 15 18 7 17 77 -2 100 -13 17 -13 18 0 10 10 -5 11 -5 5 2 -17 16 -65 33 -65
23 0 -5 6 -13 14 -17 18 -11 31 -53 16 -53 -6 0 -9 -4 -6 -8 7 -11 -35 -34
-54 -30 -41 9 -52 70 -18 92 10 6 18 13 18 17 0 11 -32 6 -45 -7z"/>
<path d="M1555 1920 c-16 -7 -17 -9 -3 -9 9 -1 18 -7 21 -13 3 -7 4 -3 4 10
-1 12 -1 22 -2 21 0 0 -9 -4 -20 -9z"/>
<path d="M1510 1909 c0 -5 5 -7 10 -4 6 3 10 8 10 11 0 2 -4 4 -10 4 -5 0 -10
-5 -10 -11z"/>
<path d="M1462 1883 c-11 -16 -18 -38 -16 -51 2 -13 0 -21 -4 -18 -5 3 -9 -1
-9 -9 0 -8 4 -15 9 -15 5 0 6 -4 3 -10 -3 -5 -1 -10 5 -10 7 0 10 -7 6 -15 -3
-9 0 -15 10 -15 9 0 12 -5 8 -12 -4 -6 -3 -8 4 -4 6 3 13 2 17 -4 3 -5 15 -10
26 -10 10 0 19 -6 19 -12 0 -9 3 -10 8 -2 4 6 15 10 24 9 20 -3 80 44 72 56
-3 5 0 9 6 9 6 0 8 5 4 11 -3 6 0 15 7 20 9 6 10 9 2 9 -6 0 -10 9 -8 20 2 11
-2 20 -8 20 -9 0 -9 2 0 8 8 5 0 15 -23 30 -32 21 -34 21 -34 3 0 -11 6 -22
13 -24 9 -4 8 -8 -3 -16 -13 -9 -12 -11 5 -11 15 0 17 -3 7 -9 -8 -4 -14 -12
-14 -17 -3 -32 -12 -39 -50 -42 -53 -4 -86 31 -80 83 2 19 7 33 11 30 4 -2 8
2 8 10 0 20 -3 19 -25 -12z"/>
<path d="M866 1338 c3 -4 -5 -6 -18 -5 -17 3 -28 -4 -44 -31 -12 -19 -20 -44
-19 -56 1 -11 3 -29 4 -39 0 -10 5 -16 10 -13 5 3 11 -4 14 -15 4 -16 11 -20
26 -16 12 3 18 1 15 -4 -8 -13 55 -6 83 9 36 20 49 86 23 118 -12 15 -12 16
-1 9 10 -5 12 -4 7 3 -4 7 -15 12 -24 12 -15 0 -15 2 -2 11 13 9 12 10 -2 5
-10 -3 -20 -1 -23 4 -3 5 -13 6 -22 3 -10 -4 -14 -2 -10 4 3 5 0 10 -8 10 -8
0 -12 -4 -9 -9z m49 -29 c3 -4 8 -18 10 -32 6 -33 -16 -56 -48 -50 -55 11 -51
91 3 89 16 -1 31 -4 35 -7z"/>
<path d="M3732 1101 c-8 -5 -13 -11 -13 -15 1 -3 -2 -6 -6 -7 -21 -1 -36 -93
-20 -116 5 -7 6 -16 3 -22 -4 -5 3 -12 14 -16 11 -3 20 -11 20 -17 0 -6 3 -8
7 -5 3 4 13 1 21 -6 13 -10 14 -9 7 3 -7 12 -6 13 6 3 12 -10 37 -11 59 -3 3
1 7 2 10 3 8 0 40 37 33 37 -5 0 -2 4 4 8 7 4 14 17 16 27 1 11 6 26 10 33 5
7 3 12 -3 12 -7 0 -10 7 -6 15 3 8 1 15 -5 15 -6 0 -8 3 -6 8 3 4 -1 13 -9 20
-8 7 -14 10 -14 6 0 -4 -9 1 -20 11 -13 12 -20 14 -20 5 0 -10 -3 -10 -15 0
-9 7 -15 8 -15 2 0 -12 29 -24 41 -16 5 3 10 -3 11 -13 5 -59 4 -72 -3 -67 -5
3 -9 1 -9 -5 0 -6 -10 -15 -21 -22 -17 -9 -20 -8 -14 3 6 10 5 10 -5 1 -9 -8
-18 -6 -36 10 -25 21 -33 57 -13 57 6 0 9 7 6 14 -4 9 2 17 14 21 10 4 19 11
19 17 0 7 -5 6 -14 -1 -9 -8 -15 -8 -18 -2 -2 6 -9 7 -16 2z"/>
</g>
</svg>
