<?xml version="1.0" standalone="no"?>
<!DOCTYPE svg PUBLIC "-//W3C//DTD SVG 20010904//EN"
 "http://www.w3.org/TR/2001/REC-SVG-20010904/DTD/svg10.dtd">
<svg version="1.0" xmlns="http://www.w3.org/2000/svg"
 width="1024.000000pt" height="1024.000000pt" viewBox="0 0 1024.000000 1024.000000"
 preserveAspectRatio="xMidYMid meet">
<metadata>
Created by potrace 1.14, written by Peter Selinger 2001-2017
</metadata>
<g transform="translate(0.000000,1024.000000) scale(0.100000,-0.100000)"
fill="#000000" stroke="none">
<path d="M0 5120 l0 -5120 5120 0 5120 0 0 5120 0 5120 -5120 0 -5120 0 0
-5120z m6540 2155 l0 -1305 655 0 655 0 0 -660 0 -660 -2645 0 -2645 0 0 660
0 660 660 0 660 0 0 655 0 655 660 0 660 0 0 650 0 650 670 0 670 0 0 -1305z
m2600 -2845 c0 -7 -1288 -10 -3845 -10 -2557 0 -3845 3 -3845 10 0 7 1288 10
3845 10 2557 0 3845 -3 3845 -10z m-4830 -591 c206 -176 382 -327 390 -335 12
-12 -71 -14 -611 -14 l-626 0 -369 316 c-203 174 -378 324 -389 335 -19 19
-10 19 605 19 l625 0 375 -321z m1325 -5 c209 -179 381 -328 383 -332 1 -4
-283 -5 -630 -2 l-633 5 -355 304 c-195 167 -366 314 -380 327 l-25 24 630 0
630 0 380 -326z m1320 -1 c211 -181 384 -330 384 -333 1 -3 -282 -4 -628 -2
l-628 2 -364 311 c-200 171 -373 319 -384 330 -19 19 -11 19 608 19 l628 0
384 -327z m1320 0 c211 -181 384 -331 384 -335 1 -5 -280 -8 -622 -8 l-624 0
-364 311 c-200 171 -375 321 -389 335 l-25 24 629 0 628 0 383 -327z m-1825
-694 c206 -176 382 -327 390 -335 12 -12 -69 -14 -615 -14 l-630 0 -375 321
c-206 176 -382 327 -390 335 -12 12 74 14 616 14 l630 0 374 -321z m1320 0
c206 -176 382 -327 390 -335 12 -12 -74 -14 -615 -14 l-630 0 -384 330 c-212
182 -387 333 -390 335 -2 3 279 5 625 5 l629 0 375 -321z m554 -476 c63 -54
238 -204 388 -333 l274 -235 -628 -3 -628 -2 -384 327 c-212 181 -385 331
-385 336 -1 4 280 7 623 7 l624 0 116 -97z"/>
</g>
</svg>
