<?xml version="1.0" standalone="no"?>
<!DOCTYPE svg PUBLIC "-//W3C//DTD SVG 20010904//EN"
 "http://www.w3.org/TR/2001/REC-SVG-20010904/DTD/svg10.dtd">
<svg version="1.0" xmlns="http://www.w3.org/2000/svg"
 width="160.000000pt" height="160.000000pt" viewBox="0 0 160.000000 160.000000"
 preserveAspectRatio="xMidYMid meet">
<metadata>
Created by potrace 1.14, written by Peter Selinger 2001-2017
</metadata>
<g transform="translate(0.000000,160.000000) scale(0.100000,-0.100000)"
fill="#000000" stroke="none">
<path d="M0 800 l0 -800 800 0 800 0 0 800 0 800 -800 0 -800 0 0 -800z m977
476 c268 0 310 -2 320 -15 9 -12 12 -88 13 -279 0 -231 -2 -263 -16 -269 -12
-4 -13 -8 -3 -14 10 -6 10 -11 1 -22 -7 -8 -10 -21 -6 -30 4 -12 -4 -17 -40
-22 -25 -4 -46 -11 -46 -16 0 -4 -19 1 -42 11 -38 17 -65 19 -223 18 -109 -1
-162 -4 -135 -8 l45 -7 -42 -1 c-35 -2 -43 -6 -51 -29 l-10 -28 -1 25 c-1 20
-9 29 -37 39 -19 7 -37 11 -39 9 -2 -2 -7 -22 -11 -45 -5 -33 -2 -44 14 -59
26 -24 30 -124 6 -124 -14 0 -19 -23 -15 -67 1 -12 -3 -24 -9 -28 -5 -3 -10 1
-10 9 0 22 -17 29 -55 22 -21 -4 -32 -11 -29 -19 2 -7 -10 -18 -28 -26 -33
-13 -33 -13 -8 -20 22 -6 23 -8 7 -14 -26 -10 -57 -9 -57 2 0 5 6 11 13 14 9
3 9 7 -1 19 -7 9 -11 22 -10 29 2 8 -10 15 -32 19 -33 5 -34 6 -10 13 l25 8
-23 9 c-21 9 -23 15 -20 62 3 48 5 53 26 52 21 -1 22 3 22 63 0 42 -4 62 -10
58 -6 -4 -19 -3 -28 1 -14 6 -11 9 13 14 24 6 18 8 -28 9 -58 1 -81 12 -83 41
-1 8 -5 23 -9 33 -5 12 -2 17 10 17 10 0 13 -4 9 -12 -5 -8 -1 -7 10 1 16 14
16 16 2 27 -21 15 -21 34 0 34 13 0 14 3 6 13 -9 11 -2 12 38 7 66 -8 64 4 -2
16 -64 11 -77 34 -20 34 31 0 41 4 45 20 4 16 0 20 -21 21 l-27 1 28 10 c21 7
26 15 22 29 -9 26 3 59 21 59 8 0 14 -10 15 -22 1 -17 3 -14 9 10 4 18 7 70 5
115 -3 97 2 127 21 127 8 0 14 6 14 14 0 20 19 31 32 18 11 -11 58 4 58 19 0
4 9 5 20 2 15 -4 20 0 20 16 0 21 1 21 19 4 18 -17 45 -18 328 -17z m-404 -3
c-7 -2 -21 -2 -30 0 -10 3 -4 5 12 5 17 0 24 -2 18 -5z m-129 -59 c3 -9 6 -38
6 -66 0 -39 -3 -49 -16 -46 -8 2 -15 6 -15 11 1 4 1 32 1 62 0 53 11 72 24 39z
m3 -170 c-3 -3 -12 -4 -19 -1 -8 3 -5 6 6 6 11 1 17 -2 13 -5z m-47 -78 c0 -2
-7 -7 -16 -10 -8 -3 -12 -2 -9 4 6 10 25 14 25 6z m-11 -342 c2 -2 -14 -4 -37
-4 -23 0 -42 4 -42 9 0 9 69 4 79 -5z m689 -1 c-15 -2 -42 -2 -60 0 -18 2 -6
4 27 4 33 0 48 -2 33 -4z"/>
<path d="M868 1153 c-10 -2 -18 -11 -18 -19 0 -11 -17 -14 -75 -14 -60 0 -75
3 -75 15 0 8 -9 15 -20 15 -18 0 -20 -7 -20 -65 0 -51 3 -65 15 -65 18 0 21
-46 3 -53 -10 -4 -10 -6 0 -6 6 -1 12 -12 12 -26 l0 -25 210 0 c203 0 210 1
210 20 0 16 -7 20 -37 21 -21 1 -49 5 -63 9 -15 5 0 6 40 3 84 -6 90 -8 90
-33 0 -13 7 -20 20 -20 25 0 27 35 3 49 -17 10 -17 10 0 11 14 0 17 9 16 63
-1 46 -3 56 -9 37 -7 -22 -8 -20 -9 16 -1 37 -15 64 -33 64 -4 0 -8 -7 -8 -15
0 -12 -14 -15 -65 -15 -51 0 -65 3 -65 15 0 9 -9 15 -24 15 -13 0 -36 2 -52 4
-16 2 -37 2 -46 -1z m57 -23 c3 -5 1 -10 -4 -10 -6 0 -11 5 -11 10 0 6 2 10 4
10 3 0 8 -4 11 -10z m152 -52 c-3 -7 -5 -2 -5 12 0 14 2 19 5 13 2 -7 2 -19 0
-25z m-330 -85 c-3 -10 -5 -4 -5 12 0 17 2 24 5 18 2 -7 2 -21 0 -30z m393 -5
c0 -10 -6 -18 -13 -18 -9 0 -12 10 -9 31 3 22 7 27 13 18 5 -8 9 -22 9 -31z
m-295 -28 c4 -6 -22 -10 -69 -10 -44 0 -76 4 -76 10 0 6 30 10 69 10 39 0 73
-4 76 -10z"/>
<path d="M1190 1085 c0 -58 2 -65 20 -65 18 0 20 7 20 65 0 58 -2 65 -20 65
-18 0 -20 -7 -20 -65z"/>
<path d="M600 1059 c0 -33 5 -70 11 -81 8 -15 8 -22 -1 -28 -17 -10 -5 -40 15
-40 12 0 15 17 15 105 0 98 -1 105 -20 105 -18 0 -20 -7 -20 -61z"/>
<path d="M660 862 c0 -30 0 -30 60 -31 37 0 59 3 55 9 -4 6 50 10 147 11 94 1
139 4 118 9 l-35 7 36 2 c29 1 38 -3 42 -20 4 -16 12 -20 34 -17 22 2 29 9 31
29 l3 27 -245 1 -246 2 0 -29z m94 -7 c-5 -13 -9 -13 -23 -3 -9 7 -18 14 -20
15 -2 2 8 3 22 3 20 0 25 -4 21 -15z m79 8 c-7 -2 -19 -2 -25 0 -7 3 -2 5 12
5 14 0 19 -2 13 -5z"/>
<path d="M1192 863 c2 -17 10 -29 21 -31 13 -3 17 3 17 27 0 25 -4 31 -21 31
-16 0 -20 -5 -17 -27z"/>
<path d="M610 856 c0 -2 7 -6 15 -10 8 -3 15 -1 15 4 0 6 -7 10 -15 10 -8 0
-15 -2 -15 -4z"/>
<path d="M608 803 c6 -2 18 -2 25 0 6 3 1 5 -13 5 -14 0 -19 -2 -12 -5z"/>
<path d="M795 800 c4 -6 65 -10 151 -10 89 0 144 4 144 10 0 6 -57 10 -151 10
-97 0 -148 -4 -144 -10z"/>
<path d="M710 771 c0 -5 16 -9 35 -9 19 0 38 4 41 9 3 5 -13 9 -35 9 -23 0
-41 -4 -41 -9z"/>
<path d="M1075 770 c27 -12 35 -12 35 0 0 6 -12 10 -27 9 -25 0 -26 -1 -8 -9z"/>
<path d="M610 630 c10 -6 11 -10 3 -10 -9 0 -13 -21 -13 -72 -1 -40 -5 -93
-10 -118 -6 -34 -5 -48 5 -59 23 -24 45 -6 45 38 0 29 5 41 18 44 16 4 16 5 0
6 -16 1 -18 12 -18 91 0 87 -1 90 -22 90 -19 0 -20 -2 -8 -10z"/>
</g>
</svg>
